<?xml version="1.0" encoding="UTF-8" standalone="no"?><svg xmlns="http://www.w3.org/2000/svg" xmlns:xlink="http://www.w3.org/1999/xlink" contentStyleType="text/css" height="303px" preserveAspectRatio="none" style="width:1129px;height:303px;background:#FFFFFF;" version="1.1" viewBox="0 0 1129 303" width="1129px" zoomAndPan="magnify"><defs/><g><rect fill="#F1F1F1" height="36.2969" rx="12.5" ry="12.5" style="stroke:#181818;stroke-width:1.5;" width="98" x="10" y="132.5938"/><text fill="#000000" font-family="sans-serif" font-size="14" lengthAdjust="spacing" textLength="78" x="20" y="155.5889">blockchain</text><rect fill="#F1F1F1" height="36.2969" rx="12.5" ry="12.5" style="stroke:#181818;stroke-width:1.5;" width="234" x="158" y="48.1484"/><text fill="#000000" font-family="sans-serif" font-size="14" lengthAdjust="spacing" textLength="214" x="168" y="71.1436">"classical" blockchain: Bitcoin</text><rect fill="#F1F1F1" height="36.2969" rx="12.5" ry="12.5" style="stroke:#181818;stroke-width:1.5;" width="169" x="442" y="20"/><text fill="#000000" font-family="sans-serif" font-size="14" lengthAdjust="spacing" textLength="149" x="452" y="42.9951">decentralized ledger</text><path d="M392,66.2969 L402,66.2969 C417,66.2969 417,38.1484 432,38.1484 L442,38.1484 " fill="none" style="stroke:#181818;stroke-width:1.0;"/><rect fill="#F1F1F1" height="36.2969" rx="12.5" ry="12.5" style="stroke:#181818;stroke-width:1.5;" width="118" x="442" y="76.2969"/><text fill="#000000" font-family="sans-serif" font-size="14" lengthAdjust="spacing" textLength="98" x="452" y="99.292">proof of work</text><rect fill="#F1F1F1" height="36.2969" rx="12.5" ry="12.5" style="stroke:#181818;stroke-width:1.5;" width="62" x="610" y="76.2969"/><text fill="#000000" font-family="sans-serif" font-size="14" lengthAdjust="spacing" textLength="42" x="620" y="99.292">miner</text><path d="M560,94.4453 L570,94.4453 C585,94.4453 585,94.4453 600,94.4453 L610,94.4453 " fill="none" style="stroke:#181818;stroke-width:1.0;"/><path d="M392,66.2969 L402,66.2969 C417,66.2969 417,94.4453 432,94.4453 L442,94.4453 " fill="none" style="stroke:#181818;stroke-width:1.0;"/><path d="M108,150.7422 L118,150.7422 C133,150.7422 133,66.2969 148,66.2969 L158,66.2969 " fill="none" style="stroke:#181818;stroke-width:1.0;"/><rect fill="#F1F1F1" height="36.2969" rx="12.5" ry="12.5" style="stroke:#181818;stroke-width:1.5;" width="287" x="158" y="188.8906"/><text fill="#000000" font-family="sans-serif" font-size="14" lengthAdjust="spacing" textLength="267" x="168" y="211.8857">"generation 2" blockchain: Ethereum</text><rect fill="#F1F1F1" height="36.2969" rx="12.5" ry="12.5" style="stroke:#181818;stroke-width:1.5;" width="194" x="495" y="160.7422"/><text fill="#000000" font-family="sans-serif" font-size="14" lengthAdjust="spacing" textLength="174" x="505" y="183.7373">decentralized computer</text><rect fill="#F1F1F1" height="36.2969" rx="12.5" ry="12.5" style="stroke:#181818;stroke-width:1.5;" width="128" x="739" y="160.7422"/><text fill="#000000" font-family="sans-serif" font-size="14" lengthAdjust="spacing" textLength="108" x="749" y="183.7373">smart contract</text><rect fill="#F1F1F1" height="36.2969" rx="12.5" ry="12.5" style="stroke:#181818;stroke-width:1.5;" width="63" x="917" y="132.5938"/><text fill="#000000" font-family="sans-serif" font-size="14" lengthAdjust="spacing" textLength="43" x="927" y="155.5889">token</text><path d="M867,178.8906 L877,178.8906 C892,178.8906 892,150.7422 907,150.7422 L917,150.7422 " fill="none" style="stroke:#181818;stroke-width:1.0;"/><rect fill="#F1F1F1" height="36.2969" rx="12.5" ry="12.5" style="stroke:#181818;stroke-width:1.5;" width="200" x="917" y="188.8906"/><text fill="#000000" font-family="sans-serif" font-size="14" lengthAdjust="spacing" textLength="180" x="927" y="211.8857">non-fungible token (NFT)</text><path d="M867,178.8906 L877,178.8906 C892,178.8906 892,207.0391 907,207.0391 L917,207.0391 " fill="none" style="stroke:#181818;stroke-width:1.0;"/><path d="M689,178.8906 L699,178.8906 C714,178.8906 714,178.8906 729,178.8906 L739,178.8906 " fill="none" style="stroke:#181818;stroke-width:1.0;"/><path d="M445,207.0391 L455,207.0391 C470,207.0391 470,178.8906 485,178.8906 L495,178.8906 " fill="none" style="stroke:#181818;stroke-width:1.0;"/><rect fill="#F1F1F1" height="36.2969" rx="12.5" ry="12.5" style="stroke:#181818;stroke-width:1.5;" width="123" x="495" y="245.1875"/><text fill="#000000" font-family="sans-serif" font-size="14" lengthAdjust="spacing" textLength="103" x="505" y="268.1826">proof of stake</text><rect fill="#F1F1F1" height="36.2969" rx="12.5" ry="12.5" style="stroke:#181818;stroke-width:1.5;" width="83" x="668" y="245.1875"/><text fill="#000000" font-family="sans-serif" font-size="14" lengthAdjust="spacing" textLength="63" x="678" y="268.1826">validator</text><path d="M618,263.3359 L628,263.3359 C643,263.3359 643,263.3359 658,263.3359 L668,263.3359 " fill="none" style="stroke:#181818;stroke-width:1.0;"/><path d="M445,207.0391 L455,207.0391 C470,207.0391 470,263.3359 485,263.3359 L495,263.3359 " fill="none" style="stroke:#181818;stroke-width:1.0;"/><path d="M108,150.7422 L118,150.7422 C133,150.7422 133,207.0391 148,207.0391 L158,207.0391 " fill="none" style="stroke:#181818;stroke-width:1.0;"/><!--MD5=[ae4142ae9a4d9b8f53f697c2fea2bd96]
@startmindmap
* blockchain
** "classical" blockchain: Bitcoin
*** decentralized ledger
*** proof of work
**** miner
** "generation 2" blockchain: Ethereum
*** decentralized computer
**** smart contract
***** token
***** non-fungible token (NFT)
*** proof of stake
**** validator
@endmindmap

PlantUML version 1.2022.3beta2(Unknown compile time)
(GPL source distribution)
Java Runtime: Java(TM) SE Runtime Environment
JVM: Java HotSpot(TM) 64-Bit Server VM
Default Encoding: UTF-8
Language: en
Country: US
--></g></svg>